<svg width="14" height="22" viewBox="0 0 14 22" fill="none" xmlns="http://www.w3.org/2000/svg">
<path fill-rule="evenodd" clip-rule="evenodd" d="M6.23871 0.274175C6.37933 0.098612 6.56996 0 6.76871 0C6.96746 0 7.15808 0.098612 7.29871 0.274175L13.2987 7.77418C13.3724 7.86 13.4315 7.9635 13.4725 8.0785C13.5135 8.1935 13.5355 8.31764 13.5373 8.44352C13.5391 8.5694 13.5206 8.69444 13.4828 8.81117C13.4451 8.92791 13.389 9.03395 13.3177 9.12297C13.2465 9.212 13.1617 9.28218 13.0683 9.32933C12.9749 9.37648 12.8749 9.39964 12.7742 9.39741C12.6735 9.39519 12.5742 9.36764 12.4822 9.3164C12.3902 9.26516 12.3074 9.19128 12.2387 9.09917L7.51871 3.19918V20.9367C7.51871 21.1853 7.43969 21.4238 7.29904 21.5996C7.15839 21.7754 6.96762 21.8742 6.76871 21.8742C6.5698 21.8742 6.37903 21.7754 6.23838 21.5996C6.09773 21.4238 6.01871 21.1853 6.01871 20.9367V3.19918L1.29871 9.09917C1.23005 9.19128 1.14725 9.26516 1.05525 9.3164C0.963247 9.36764 0.863934 9.39519 0.763231 9.39741C0.662528 9.39964 0.562499 9.37648 0.46911 9.32933C0.375722 9.28218 0.290888 9.212 0.21967 9.12297C0.148451 9.03395 0.0923064 8.92791 0.0545854 8.81117C0.0168643 8.69444 -0.00166006 8.5694 0.000116722 8.44352C0.00189351 8.31764 0.023935 8.1935 0.064927 8.0785C0.105919 7.9635 0.165021 7.86 0.238708 7.77418L6.23871 0.274175Z" fill="url(#paint0_linear_406_5742)"/>
<defs>
<linearGradient id="paint0_linear_406_5742" x1="6.76871" y1="0" x2="6.76871" y2="21.8742" gradientUnits="userSpaceOnUse">
<stop stop-color="#2A209E"/>
<stop offset="1" stop-color="#470060"/>
</linearGradient>
</defs>
</svg>
