<svg width="18" height="17" viewBox="0 0 18 17" fill="none" xmlns="http://www.w3.org/2000/svg">
<path d="M14.2 5.96313V13.6573M14.2 13.6573V16.3503H3.8V13.6573M14.2 13.6573H17V5.96313C17 4.809 16.2 3.46252 15 2.50075C13.8 1.53898 11.4 0.961914 11.4 0.961914H6.6C6.6 0.961914 4.2 1.53898 3 2.50075C1.8 3.46252 1 4.809 1 5.96313V13.6573H3.8M3.8 13.6573V5.96313" stroke="url(#paint0_linear_147_112)" stroke-linecap="round" stroke-linejoin="round"/>
<path d="M11.4001 0.961914C11.4001 2.23673 10.3255 3.27017 9.00006 3.27017C7.67458 3.27017 6.60006 2.23673 6.60006 0.961914" stroke="url(#paint1_linear_147_112)" stroke-linecap="round" stroke-linejoin="round"/>
<defs>
<linearGradient id="paint0_linear_147_112" x1="9" y1="0.961914" x2="9" y2="16.3503" gradientUnits="userSpaceOnUse">
<stop stop-color="#2A209E"/>
<stop offset="1" stop-color="#470060" stop-opacity="0.88"/>
</linearGradient>
<linearGradient id="paint1_linear_147_112" x1="9.00006" y1="0.961914" x2="9.00006" y2="3.27017" gradientUnits="userSpaceOnUse">
<stop stop-color="#2A209E"/>
<stop offset="1" stop-color="#470060" stop-opacity="0.88"/>
</linearGradient>
</defs>
</svg>
