<svg width="18" height="18" viewBox="0 0 18 18" fill="none" xmlns="http://www.w3.org/2000/svg">
<path d="M13 11H9M5 6L5.1872 6.195C6.2128 7.263 6.7256 7.797 6.7256 8.5C6.7256 9.203 6.2136 9.737 5.1872 10.805L5 11" stroke="url(#paint0_linear_74_2702)" stroke-width="1.5" stroke-linecap="round"/>
<path d="M17 9C17 12.7712 17 14.6568 15.828 15.828C14.6576 17 12.7712 17 9 17C5.2288 17 3.3432 17 2.1712 15.828C1 14.6576 1 12.7712 1 9C1 5.2288 1 3.3432 2.1712 2.1712C3.344 1 5.2288 1 9 1C12.7712 1 14.6568 1 15.828 2.1712C16.6072 2.9504 16.868 4.0456 16.956 5.8" stroke="url(#paint1_linear_74_2702)" stroke-width="1.5" stroke-linecap="round"/>
<defs>
<linearGradient id="paint0_linear_74_2702" x1="9" y1="6" x2="9" y2="11" gradientUnits="userSpaceOnUse">
<stop stop-color="#2A209E"/>
<stop offset="1" stop-color="#470060" stop-opacity="0.88"/>
</linearGradient>
<linearGradient id="paint1_linear_74_2702" x1="9" y1="1" x2="9" y2="17" gradientUnits="userSpaceOnUse">
<stop stop-color="#2A209E"/>
<stop offset="1" stop-color="#470060" stop-opacity="0.88"/>
</linearGradient>
</defs>
</svg>
