<svg width="16" height="17" viewBox="0 0 16 17" fill="none" xmlns="http://www.w3.org/2000/svg">
<path d="M7.52569 15.8931V14.0003C7.52569 13.8791 7.57576 13.7628 7.6649 13.6771C7.75404 13.5913 7.87494 13.5432 8.001 13.5432C8.12706 13.5432 8.24796 13.5913 8.3371 13.6771C8.42624 13.7628 8.47631 13.8791 8.47631 14.0003V15.8931C8.47631 16.0143 8.42624 16.1306 8.3371 16.2164C8.24796 16.3021 8.12706 16.3503 8.001 16.3503C7.87494 16.3503 7.75404 16.3021 7.6649 16.2164C7.57576 16.1306 7.52569 16.0143 7.52569 15.8931ZM12.9855 14.0952L11.5942 12.7577C11.5482 12.7157 11.5114 12.6652 11.486 12.6093C11.4606 12.5534 11.4471 12.4932 11.4462 12.4321C11.4454 12.3711 11.4573 12.3105 11.4812 12.254C11.5051 12.1975 11.5406 12.1461 11.5854 12.103C11.6303 12.0598 11.6837 12.0258 11.7425 12.0028C11.8012 11.9798 11.8642 11.9683 11.9276 11.9691C11.9911 11.9699 12.0537 11.9829 12.1119 12.0073C12.17 12.0318 12.2225 12.0672 12.2662 12.1114L13.6561 13.4508C13.734 13.5385 13.7745 13.6513 13.7696 13.7665C13.7647 13.8817 13.7147 13.9909 13.6296 14.0722C13.5446 14.1534 13.4307 14.2008 13.3109 14.2047C13.191 14.2086 13.0741 14.1688 12.9835 14.0933L12.9841 14.0939L12.9855 14.0952ZM2.34457 14.0952C2.30023 14.0529 2.26503 14.0026 2.24101 13.9471C2.217 13.8916 2.20463 13.8322 2.20463 13.7721C2.20463 13.712 2.217 13.6525 2.24101 13.597C2.26503 13.5416 2.30023 13.4912 2.34457 13.4489L3.73584 12.1108C3.77954 12.0665 3.832 12.0311 3.89014 12.0067C3.94828 11.9823 4.01092 11.9693 4.07436 11.9685C4.13781 11.9677 4.20077 11.9791 4.25955 12.0021C4.31832 12.0251 4.37172 12.0592 4.41658 12.1023C4.46145 12.1455 4.49688 12.1968 4.52078 12.2534C4.54468 12.3099 4.55657 12.3705 4.55576 12.4315C4.55494 12.4925 4.54143 12.5528 4.51602 12.6087C4.49061 12.6646 4.45382 12.7151 4.40782 12.7571L3.01654 14.0946C2.97254 14.1372 2.9202 14.1711 2.86254 14.1942C2.80487 14.2173 2.74302 14.2292 2.68055 14.2292C2.61809 14.2292 2.55624 14.2173 2.49857 14.1942C2.44091 14.1711 2.38857 14.1379 2.34457 14.0952ZM4.21316 8.65481C4.21316 7.6884 4.6123 6.76158 5.32279 6.07823C6.03327 5.39488 6.99689 5.01097 8.00167 5.01097C9.00644 5.01097 9.97006 5.39488 10.6805 6.07823C11.391 6.76158 11.7902 7.6884 11.7902 8.65481C11.7902 9.62121 11.391 10.548 10.6805 11.2314C9.97006 11.9147 9.00644 12.2986 8.00167 12.2986C6.99689 12.2986 6.03327 11.9147 5.32279 11.2314C4.6123 10.548 4.21316 9.62121 4.21316 8.65481ZM5.16312 8.65481C5.15493 9.0184 5.22231 9.3799 5.36131 9.71811C5.50031 10.0563 5.70814 10.3644 5.9726 10.6244C6.23705 10.8843 6.55282 11.0908 6.90136 11.2318C7.24991 11.3728 7.62422 11.4454 8.00233 11.4454C8.38045 11.4454 8.75476 11.3728 9.10331 11.2318C9.45185 11.0908 9.76761 10.8843 10.0321 10.6244C10.2965 10.3644 10.5044 10.0563 10.6434 9.71811C10.7824 9.3799 10.8497 9.0184 10.8415 8.65481C10.8255 7.9408 10.5193 7.26126 9.98856 6.76176C9.45786 6.26227 8.74486 5.98255 8.00233 5.98255C7.25981 5.98255 6.54681 6.26227 6.01611 6.76176C5.4854 7.26126 5.17921 7.9408 5.16312 8.65481ZM13.5568 9.11197C13.4944 9.11197 13.4325 9.10014 13.3749 9.07717C13.3172 9.05419 13.2648 9.02052 13.2207 8.97807C13.1765 8.93562 13.1415 8.88522 13.1176 8.82975C13.0938 8.77429 13.0815 8.71484 13.0815 8.65481C13.0815 8.59477 13.0938 8.53532 13.1176 8.47986C13.1415 8.42439 13.1765 8.37399 13.2207 8.33154C13.2648 8.28909 13.3172 8.25542 13.3749 8.23244C13.4325 8.20947 13.4944 8.19764 13.5568 8.19764H15.5247C15.5871 8.19764 15.6489 8.20947 15.7066 8.23244C15.7642 8.25542 15.8166 8.28909 15.8608 8.33154C15.9049 8.37399 15.9399 8.42439 15.9638 8.47986C15.9877 8.53532 16 8.59477 16 8.65481C16 8.71484 15.9877 8.77429 15.9638 8.82975C15.9399 8.88522 15.9049 8.93562 15.8608 8.97807C15.8166 9.02052 15.7642 9.05419 15.7066 9.07717C15.6489 9.10014 15.5871 9.11197 15.5247 9.11197H13.5568ZM0.475314 9.11197C0.412895 9.11197 0.351087 9.10014 0.293419 9.07717C0.235751 9.05419 0.183353 9.02052 0.139216 8.97807C0.0950792 8.93562 0.0600678 8.88522 0.0361811 8.82975C0.0122943 8.77429 0 8.71484 0 8.65481C0 8.59477 0.0122943 8.53532 0.0361811 8.47986C0.0600678 8.42439 0.0950792 8.37399 0.139216 8.33154C0.183353 8.28909 0.235751 8.25542 0.293419 8.23244C0.351087 8.20947 0.412895 8.19764 0.475314 8.19764H2.4439C2.50632 8.19764 2.56813 8.20947 2.62579 8.23244C2.68346 8.25542 2.73586 8.28909 2.78 8.33154C2.82413 8.37399 2.85914 8.42439 2.88303 8.47986C2.90692 8.53532 2.91921 8.59477 2.91921 8.65481C2.91921 8.71484 2.90692 8.77429 2.88303 8.82975C2.85914 8.88522 2.82413 8.93562 2.78 8.97807C2.73586 9.02052 2.68346 9.05419 2.62579 9.07717C2.56813 9.10014 2.50632 9.11197 2.4439 9.11197H0.475314ZM11.5929 5.19884C11.5485 5.15652 11.5133 5.10618 11.4893 5.05072C11.4653 4.99525 11.4529 4.93577 11.4529 4.87568C11.4529 4.8156 11.4653 4.75611 11.4893 4.70065C11.5133 4.64519 11.5485 4.59485 11.5929 4.55253L12.9841 3.21438C13.0278 3.17013 13.0803 3.13475 13.1384 3.11031C13.1966 3.08587 13.2592 3.07288 13.3226 3.07209C13.3861 3.07131 13.4491 3.08275 13.5078 3.10574C13.5666 3.12873 13.62 3.1628 13.6649 3.20595C13.7097 3.24911 13.7452 3.30046 13.7691 3.35699C13.793 3.41352 13.8049 3.47408 13.804 3.5351C13.8032 3.59612 13.7897 3.65637 13.7643 3.71229C13.7389 3.76821 13.7021 3.81867 13.6561 3.86069L12.2648 5.19884C12.2208 5.24149 12.1685 5.27534 12.1108 5.29844C12.0532 5.32154 11.9913 5.33343 11.9288 5.33343C11.8664 5.33343 11.8045 5.32154 11.7469 5.29844C11.6892 5.27534 11.6368 5.24149 11.5929 5.19884ZM3.73451 5.19884L2.34457 3.86198C2.29856 3.81995 2.26177 3.76949 2.23636 3.71357C2.21096 3.65765 2.19744 3.5974 2.19663 3.53638C2.19581 3.47536 2.2077 3.4148 2.23161 3.35827C2.25551 3.30174 2.29094 3.25039 2.3358 3.20724C2.38067 3.16408 2.43406 3.13001 2.49284 3.10702C2.55161 3.08403 2.61458 3.07259 2.67802 3.07337C2.74146 3.07416 2.8041 3.08715 2.86224 3.11159C2.92038 3.13603 2.97285 3.17142 3.01654 3.21567L4.40782 4.55381C4.45382 4.59584 4.49061 4.6463 4.51602 4.70222C4.54143 4.75814 4.55494 4.81838 4.55576 4.8794C4.55657 4.94042 4.54468 5.00099 4.52078 5.05752C4.49688 5.11405 4.46145 5.1654 4.41658 5.20855C4.37172 5.2517 4.31832 5.28578 4.25955 5.30877C4.20077 5.33176 4.13781 5.3432 4.07436 5.34241C4.01092 5.34163 3.94828 5.32863 3.89014 5.30419C3.832 5.27976 3.77954 5.24437 3.73584 5.20012L3.73451 5.19884ZM7.52435 3.3112V1.41908C7.52435 1.29783 7.57443 1.18155 7.66357 1.09581C7.75271 1.01008 7.87361 0.961914 7.99967 0.961914C8.12573 0.961914 8.24663 1.01008 8.33576 1.09581C8.4249 1.18155 8.47498 1.29783 8.47498 1.41908V3.31184C8.47498 3.43309 8.4249 3.54937 8.33576 3.63511C8.24663 3.72084 8.12573 3.76901 7.99967 3.76901C7.87361 3.76901 7.75271 3.72084 7.66357 3.63511C7.57443 3.54937 7.52435 3.43245 7.52435 3.3112Z" fill="url(#paint0_linear_147_119)"/>
<defs>
<linearGradient id="paint0_linear_147_119" x1="8" y1="0.961914" x2="8" y2="16.3503" gradientUnits="userSpaceOnUse">
<stop stop-color="#2A209E"/>
<stop offset="1" stop-color="#470060"/>
</linearGradient>
</defs>
</svg>
