<svg width="29" height="30" viewBox="0 0 29 30" fill="none" xmlns="http://www.w3.org/2000/svg">
<path d="M28.0662 11.6608L16.4734 0.775589L16.4502 0.753954C15.9175 0.268975 15.2215 0 14.4993 0C13.7771 0 13.0811 0.268975 12.5483 0.753954L12.5237 0.775589L0.9338 11.6608C0.639886 11.9313 0.405251 12.2592 0.244574 12.6241C0.0838974 12.9889 0.000636306 13.3828 0 13.781V27.1153C0 27.8804 0.305535 28.6141 0.84939 29.1551C1.39325 29.6961 2.13087 30 2.9 30H9.86C10.6291 30 11.3668 29.6961 11.9106 29.1551C12.4545 28.6141 12.76 27.8804 12.76 27.1153V20.7691H16.24V27.1153C16.24 27.8804 16.5455 28.6141 17.0894 29.1551C17.6332 29.6961 18.3709 30 19.14 30H26.1C26.8691 30 27.6068 29.6961 28.1506 29.1551C28.6945 28.6141 29 27.8804 29 27.1153V13.781C28.9994 13.3828 28.9161 12.9889 28.7554 12.6241C28.5947 12.2592 28.3601 11.9313 28.0662 11.6608ZM25.52 26.5384H19.72V20.1922C19.72 19.8134 19.645 19.4383 19.4992 19.0883C19.3535 18.7383 19.1399 18.4203 18.8706 18.1524C18.6013 17.8846 18.2816 17.6721 17.9298 17.5271C17.5779 17.3821 17.2008 17.3075 16.82 17.3075H12.18C11.4109 17.3075 10.6732 17.6115 10.1294 18.1524C9.58553 18.6934 9.28 19.4271 9.28 20.1922V26.5384H3.48V14.0306L14.5 3.68188L25.52 14.0306V26.5384Z" fill="url(#paint0_linear_74_2027)"/>
<defs>
<linearGradient id="paint0_linear_74_2027" x1="14.5" y1="0" x2="14.5" y2="30" gradientUnits="userSpaceOnUse">
<stop stop-color="#2A209E"/>
<stop offset="1" stop-color="#470060" stop-opacity="0.88"/>
</linearGradient>
</defs>
</svg>
