<svg width="23" height="12" viewBox="0 0 23 12" fill="none" xmlns="http://www.w3.org/2000/svg">
<path d="M6 8C5.45 8 4.979 7.804 4.587 7.412C4.195 7.02 3.99933 6.54933 4 6C4 5.45 4.196 4.979 4.588 4.587C4.98 4.195 5.45067 3.99933 6 4C6.55 4 7.021 4.196 7.413 4.588C7.805 4.98 8.00067 5.45067 8 6C8 6.55 7.804 7.021 7.412 7.413C7.02 7.805 6.54933 8.00067 6 8ZM6 12C4.33333 12 2.91667 11.4167 1.75 10.25C0.583333 9.08333 0 7.66667 0 6C0 4.33333 0.583333 2.91667 1.75 1.75C2.91667 0.583333 4.33333 0 6 0C7.11667 0 8.12933 0.275 9.038 0.825C9.94667 1.375 10.6673 2.1 11.2 3H20L23 6L18.5 10.5L16.5 9L14.5 10.5L12.375 9H11.2C10.6667 9.9 9.94567 10.625 9.037 11.175C8.12833 11.725 7.116 12 6 12ZM6 10C6.93333 10 7.75433 9.71667 8.463 9.15C9.17167 8.58333 9.64233 7.86667 9.875 7H13L14.45 8.025L16.5 6.5L18.275 7.875L20.15 6L19.15 5H9.875C9.64167 4.13333 9.17067 3.41667 8.462 2.85C7.75333 2.28333 6.93267 2 6 2C4.9 2 3.95833 2.39167 3.175 3.175C2.39167 3.95833 2 4.9 2 6C2 7.1 2.39167 8.04167 3.175 8.825C3.95833 9.60833 4.9 10 6 10Z" fill="url(#paint0_linear_147_145)"/>
<defs>
<linearGradient id="paint0_linear_147_145" x1="11.5" y1="0" x2="11.5" y2="12" gradientUnits="userSpaceOnUse">
<stop stop-color="#2A209E"/>
<stop offset="1" stop-color="#470060"/>
</linearGradient>
</defs>
</svg>
