<svg width="33" height="30" viewBox="0 0 33 30" fill="none" xmlns="http://www.w3.org/2000/svg">
<path d="M23.1 30C22.1925 30 21.4153 29.6733 20.7685 29.02C20.1217 28.3667 19.7989 27.5822 19.8 26.6667V20C19.8 19.0833 20.1234 18.2983 20.7702 17.645C21.417 16.9917 22.1936 16.6656 23.1 16.6667H29.7C30.6075 16.6667 31.3846 16.9933 32.0314 17.6467C32.6782 18.3 33.0011 19.0844 33 20V26.6667C33 27.5833 32.6766 28.3683 32.0298 29.0217C31.383 29.675 30.6064 30.0011 29.7 30H23.1ZM23.1 26.6667H29.7V20H23.1V26.6667ZM0 25V21.6667H14.85V25H0ZM23.1 13.3333C22.1925 13.3333 21.4153 13.0067 20.7685 12.3533C20.1217 11.7 19.7989 10.9156 19.8 10V3.33334C19.8 2.41667 20.1234 1.63167 20.7702 0.978336C21.417 0.325003 22.1936 -0.00110828 23.1 2.82966e-06H29.7C30.6075 2.82966e-06 31.3846 0.326669 32.0314 0.980003C32.6782 1.63334 33.0011 2.41778 33 3.33334V10C33 10.9167 32.6766 11.7017 32.0298 12.355C31.383 13.0083 30.6064 13.3344 29.7 13.3333H23.1ZM23.1 10H29.7V3.33334H23.1V10ZM0 8.33333V5H14.85V8.33333H0Z" fill="url(#paint0_linear_74_1786)"/>
<defs>
<linearGradient id="paint0_linear_74_1786" x1="16.5" y1="0" x2="16.5" y2="30" gradientUnits="userSpaceOnUse">
<stop stop-color="#2A209E"/>
<stop offset="1" stop-color="#470060" stop-opacity="0.88"/>
</linearGradient>
</defs>
</svg>
