<svg width="15" height="18" viewBox="0 0 15 18" fill="none" xmlns="http://www.w3.org/2000/svg">
<path d="M7.5 13.7143C7.00272 13.7143 6.52581 13.5337 6.17418 13.2122C5.82254 12.8907 5.625 12.4547 5.625 12C5.625 11.0486 6.45937 10.2857 7.5 10.2857C7.99728 10.2857 8.47419 10.4663 8.82582 10.7878C9.17746 11.1093 9.375 11.5453 9.375 12C9.375 12.4547 9.17746 12.8907 8.82582 13.2122C8.47419 13.5337 7.99728 13.7143 7.5 13.7143ZM13.125 16.2857V7.71429H1.875V16.2857H13.125ZM13.125 6C13.6223 6 14.0992 6.18061 14.4508 6.5021C14.8025 6.82359 15 7.25963 15 7.71429V16.2857C15 16.7404 14.8025 17.1764 14.4508 17.4979C14.0992 17.8194 13.6223 18 13.125 18H1.875C1.37772 18 0.900805 17.8194 0.549175 17.4979C0.197544 17.1764 0 16.7404 0 16.2857V7.71429C0 6.76286 0.834375 6 1.875 6H2.8125V4.28571C2.8125 3.14907 3.30636 2.05898 4.18544 1.25526C5.06451 0.451529 6.2568 0 7.5 0C8.11557 0 8.72511 0.110853 9.29383 0.326231C9.86254 0.541608 10.3793 0.857291 10.8146 1.25526C11.2498 1.65322 11.5951 2.12568 11.8307 2.64564C12.0663 3.16561 12.1875 3.72291 12.1875 4.28571V6H13.125ZM7.5 1.71429C6.75408 1.71429 6.03871 1.9852 5.51126 2.46744C4.98382 2.94968 4.6875 3.60373 4.6875 4.28571V6H10.3125V4.28571C10.3125 3.60373 10.0162 2.94968 9.48874 2.46744C8.96129 1.9852 8.24592 1.71429 7.5 1.71429Z" fill="url(#paint0_linear_65_253)" fill-opacity="0.88"/>
<defs>
<linearGradient id="paint0_linear_65_253" x1="7.5" y1="0" x2="7.5" y2="18" gradientUnits="userSpaceOnUse">
<stop stop-color="#2A209E"/>
<stop offset="1" stop-color="#470060" stop-opacity="0.88"/>
</linearGradient>
</defs>
</svg>
