<svg width="20" height="17" viewBox="0 0 20 17" fill="none" xmlns="http://www.w3.org/2000/svg">
<path d="M15.3197 9.28604C17.1563 9.28604 18.7724 8.25879 19.4617 6.7366C18.9151 6.96521 18.2732 7.0551 17.6394 7.0551C16.4529 7.0551 15.3151 6.6018 14.4761 5.79494C13.6372 4.98807 13.1659 3.89373 13.1659 2.75264C13.1659 2.14303 13.2594 1.52565 13.4971 1C11.9144 1.66288 10.8463 3.21726 10.8463 4.98359C10.846 5.33495 10.8904 5.68503 10.9786 6.026" stroke="url(#paint0_linear_147_120)" stroke-linecap="round" stroke-linejoin="round"/>
<path d="M3.86962 10.5753C3.99817 10.5561 4.11715 10.4984 4.20962 10.4104C4.30209 10.3224 4.36333 10.2086 4.38462 10.0852C4.84962 7.36889 6.90885 5.73499 9.3077 5.73499C11.5358 5.73499 13.0239 7.13141 13.6231 8.61069C13.6616 8.7055 13.7251 8.78903 13.8074 8.85305C13.8897 8.91707 13.9879 8.95937 14.0923 8.97579C16.0154 9.27727 17.6154 10.5124 17.6154 12.6597C17.6154 14.857 15.7462 16.3885 13.4615 16.3885H4.46154C2.55769 16.3885 1 15.4748 1 13.4588C1 11.6658 2.48731 10.7873 3.86962 10.5753Z" stroke="url(#paint1_linear_147_120)" stroke-linejoin="round"/>
<defs>
<linearGradient id="paint0_linear_147_120" x1="15.154" y1="1" x2="15.154" y2="9.28604" gradientUnits="userSpaceOnUse">
<stop stop-color="#2A209E"/>
<stop offset="1" stop-color="#470060" stop-opacity="0.88"/>
</linearGradient>
<linearGradient id="paint1_linear_147_120" x1="9.3077" y1="5.73499" x2="9.3077" y2="16.3885" gradientUnits="userSpaceOnUse">
<stop stop-color="#2A209E"/>
<stop offset="1" stop-color="#470060" stop-opacity="0.88"/>
</linearGradient>
</defs>
</svg>
