<svg width="93" height="27" viewBox="0 0 93 27" fill="none" xmlns="http://www.w3.org/2000/svg">
<path d="M84.159 17.6719H80.3154V26.5H76.5654V3.75H83.784C84.9611 3.76042 86.0444 3.91146 87.034 4.20312C88.0236 4.49479 88.8777 4.92188 89.5964 5.48438C90.3048 6.05729 90.8568 6.77083 91.2527 7.625C91.6485 8.46875 91.8464 9.45833 91.8464 10.5938C91.8464 11.375 91.7422 12.0833 91.5339 12.7188C91.336 13.3542 91.0547 13.9271 90.6902 14.4375C90.3256 14.9479 89.8881 15.3958 89.3777 15.7812C88.8673 16.1667 88.2996 16.5 87.6746 16.7812L92.5339 26.2969V26.5H88.5183L84.159 17.6719ZM80.3154 14.6094H83.8309C84.4976 14.599 85.0965 14.5 85.6278 14.3125C86.1694 14.1146 86.6277 13.8333 87.0027 13.4688C87.3361 13.1562 87.5965 12.7708 87.784 12.3125C87.9715 11.8542 88.0652 11.3333 88.0652 10.75C88.0652 10.0938 87.9611 9.52083 87.7527 9.03125C87.5548 8.53125 87.2579 8.11458 86.8621 7.78125C86.4975 7.46875 86.0548 7.23438 85.534 7.07812C85.0132 6.91146 84.4299 6.82292 83.784 6.8125H80.3154V14.6094Z" fill="url(#paint0_linear_65_265)"/>
<path d="M56.8375 17.8906C56.8375 16.6615 57.0146 15.526 57.3688 14.4844C57.7229 13.4323 58.2385 12.5208 58.9156 11.75C59.5823 10.9792 60.4 10.375 61.3687 9.9375C62.3374 9.5 63.4416 9.28125 64.6811 9.28125C65.9207 9.28125 67.0248 9.5 67.9936 9.9375C68.9727 10.375 69.8008 10.9792 70.4779 11.75C71.1446 12.5208 71.655 13.4323 72.0091 14.4844C72.3633 15.526 72.5404 16.6615 72.5404 17.8906V18.2188C72.5404 19.4583 72.3633 20.599 72.0091 21.6406C71.655 22.6823 71.1446 23.5885 70.4779 24.3594C69.8112 25.1302 68.9883 25.7344 68.0092 26.1719C67.0405 26.6094 65.9415 26.8281 64.7124 26.8281C63.4728 26.8281 62.3635 26.6094 61.3843 26.1719C60.4052 25.7344 59.5823 25.1302 58.9156 24.3594C58.2385 23.5885 57.7229 22.6823 57.3688 21.6406C57.0146 20.599 56.8375 19.4583 56.8375 18.2188V17.8906ZM60.5718 18.2188C60.5718 18.9792 60.65 19.6979 60.8062 20.375C60.9729 21.0521 61.2281 21.6458 61.5718 22.1562C61.9051 22.6667 62.3322 23.0729 62.853 23.375C63.3739 23.6667 63.9936 23.8125 64.7124 23.8125C65.4103 23.8125 66.0196 23.6667 66.5405 23.375C67.0613 23.0729 67.4884 22.6667 67.8217 22.1562C68.155 21.6458 68.3998 21.0521 68.5561 20.375C68.7227 19.6979 68.8061 18.9792 68.8061 18.2188V17.8906C68.8061 17.151 68.7227 16.4427 68.5561 15.7656C68.3894 15.0885 68.1446 14.4948 67.8217 13.9844C67.478 13.474 67.0457 13.0677 66.5248 12.7656C66.0144 12.4635 65.3999 12.3125 64.6811 12.3125C63.9728 12.3125 63.3582 12.4635 62.8374 12.7656C62.327 13.0677 61.9051 13.474 61.5718 13.9844C61.2281 14.4948 60.9729 15.0885 60.8062 15.7656C60.65 16.4427 60.5718 17.151 60.5718 17.8906V18.2188Z" fill="url(#paint1_linear_65_265)"/>
<path d="M43.1253 23.4844H53.422V26.5H38.141V24.0469L47.8596 12.6406H38.3285V9.59375H52.9532V11.9688L43.1253 23.4844Z" fill="url(#paint2_linear_65_265)"/>
<path d="M18.6631 17.8906C18.6631 16.6615 18.8402 15.526 19.1944 14.4844C19.5485 13.4323 20.0642 12.5208 20.7412 11.75C21.4079 10.9792 22.2256 10.375 23.1943 9.9375C24.163 9.5 25.2672 9.28125 26.5068 9.28125C27.7463 9.28125 28.8505 9.5 29.8192 9.9375C30.7983 10.375 31.6264 10.9792 32.3035 11.75C32.9702 12.5208 33.4806 13.4323 33.8347 14.4844C34.1889 15.526 34.366 16.6615 34.366 17.8906V18.2188C34.366 19.4583 34.1889 20.599 33.8347 21.6406C33.4806 22.6823 32.9702 23.5885 32.3035 24.3594C31.6369 25.1302 30.814 25.7344 29.8348 26.1719C28.8661 26.6094 27.7671 26.8281 26.538 26.8281C25.2984 26.8281 24.1891 26.6094 23.2099 26.1719C22.2308 25.7344 21.4079 25.1302 20.7412 24.3594C20.0642 23.5885 19.5485 22.6823 19.1944 21.6406C18.8402 20.599 18.6631 19.4583 18.6631 18.2188V17.8906ZM22.3975 18.2188C22.3975 18.9792 22.4756 19.6979 22.6318 20.375C22.7985 21.0521 23.0537 21.6458 23.3974 22.1562C23.7308 22.6667 24.1578 23.0729 24.6787 23.375C25.1995 23.6667 25.8193 23.8125 26.538 23.8125C27.2359 23.8125 27.8453 23.6667 28.3661 23.375C28.8869 23.0729 29.314 22.6667 29.6473 22.1562C29.9806 21.6458 30.2254 21.0521 30.3817 20.375C30.5483 19.6979 30.6317 18.9792 30.6317 18.2188V17.8906C30.6317 17.151 30.5483 16.4427 30.3817 15.7656C30.215 15.0885 29.9702 14.4948 29.6473 13.9844C29.3036 13.474 28.8713 13.0677 28.3505 12.7656C27.8401 12.4635 27.2255 12.3125 26.5068 12.3125C25.7984 12.3125 25.1839 12.4635 24.663 12.7656C24.1526 13.0677 23.7308 13.474 23.3974 13.9844C23.0537 14.4948 22.7985 15.0885 22.6318 15.7656C22.4756 16.4427 22.3975 17.151 22.3975 17.8906V18.2188Z" fill="url(#paint3_linear_65_265)"/>
<path d="M-0.00219727 26.5V3.75H5.6227C6.60185 3.75 7.52371 3.86458 8.38827 4.09375C9.25284 4.3125 10.0393 4.61979 10.7476 5.01562C11.5184 5.42188 12.2007 5.93229 12.7944 6.54688C13.3986 7.16146 13.9038 7.84896 14.31 8.60938C14.7267 9.40104 15.0496 10.2708 15.2788 11.2188C15.5079 12.1667 15.6225 13.1771 15.6225 14.25V16.0312C15.6225 17.0625 15.5131 18.0417 15.2944 18.9688C15.0861 19.8854 14.784 20.724 14.3882 21.4844C14.0028 22.224 13.534 22.8958 12.9819 23.5C12.4403 24.1042 11.8361 24.6198 11.1695 25.0469C10.4195 25.5156 9.58617 25.875 8.66952 26.125C7.76329 26.375 6.78935 26.5 5.7477 26.5H-0.00219727ZM3.79461 6.8125V23.4531H5.7477C6.41435 23.4531 7.02372 23.375 7.57579 23.2188C8.13828 23.0521 8.64348 22.8177 9.09139 22.5156C9.54971 22.2031 9.95595 21.8125 10.3101 21.3438C10.6747 20.8646 10.9716 20.3177 11.2007 19.7031C11.3986 19.1823 11.5497 18.6146 11.6538 18C11.758 17.3854 11.8101 16.7292 11.8101 16.0312V14.2188C11.8101 13.5312 11.758 12.8802 11.6538 12.2656C11.5497 11.651 11.3986 11.0833 11.2007 10.5625C10.9507 9.92708 10.6174 9.35417 10.2007 8.84375C9.78408 8.32292 9.2893 7.90104 8.71639 7.57812C8.29973 7.33854 7.83099 7.15625 7.31017 7.03125C6.78935 6.89583 6.22686 6.82292 5.6227 6.8125H3.79461Z" fill="url(#paint4_linear_65_265)"/>
<path d="M72.7466 7.59766C72.356 7.59766 71.9979 7.53255 71.6724 7.40234C71.3501 7.27214 71.0734 7.09147 70.8423 6.86035C70.6112 6.63249 70.4322 6.36393 70.3052 6.05469C70.1815 5.74219 70.1197 5.40527 70.1197 5.04395V4.84375C70.1197 4.43034 70.1848 4.05599 70.315 3.7207C70.4452 3.38542 70.6242 3.09896 70.8521 2.86133C71.08 2.6237 71.3436 2.44141 71.6431 2.31445C71.9458 2.18424 72.2681 2.11914 72.6099 2.11914C72.9907 2.11914 73.3276 2.18424 73.6206 2.31445C73.9136 2.44141 74.1593 2.61882 74.3579 2.84668C74.5565 3.0778 74.7062 3.35286 74.8071 3.67188C74.908 3.99089 74.9585 4.33919 74.9585 4.7168V5.21973H71.2964V5.24414C71.3322 5.47526 71.3876 5.66895 71.4624 5.8252C71.5373 5.98145 71.6398 6.12142 71.7701 6.24512C71.9003 6.37533 72.0532 6.47624 72.229 6.54785C72.4081 6.61947 72.6034 6.65527 72.815 6.65527C73.1047 6.65527 73.3748 6.59993 73.6255 6.48926C73.8761 6.37533 74.0828 6.21419 74.2456 6.00586L74.8706 6.61133C74.6948 6.86523 74.4246 7.0931 74.06 7.29492C73.6987 7.49674 73.2609 7.59766 72.7466 7.59766ZM72.605 3.06641C72.439 3.06641 72.2844 3.09733 72.1411 3.15918C72.0012 3.21777 71.8758 3.30241 71.7652 3.41309C71.6545 3.52702 71.5617 3.66374 71.4869 3.82324C71.412 3.98275 71.3566 4.16341 71.3208 4.36523H73.8061V4.28711C73.8061 4.13411 73.7785 3.98275 73.7231 3.83301C73.6678 3.68001 73.5897 3.54655 73.4888 3.43262C73.3911 3.32194 73.2674 3.23405 73.1177 3.16895C72.9712 3.10059 72.8003 3.06641 72.605 3.06641Z" fill="url(#paint5_linear_65_265)"/>
<path d="M64.9801 2.2168L65.0143 2.79785C65.1152 2.58626 65.2536 2.42025 65.4294 2.2998C65.6084 2.17936 65.8232 2.11914 66.0739 2.11914C66.2041 2.11914 66.3213 2.13379 66.4254 2.16309C66.5296 2.19238 66.6191 2.23796 66.694 2.2998C66.7526 2.34538 66.8047 2.40072 66.8502 2.46582C66.8958 2.52767 66.9349 2.59928 66.9674 2.68066C67.013 2.60579 67.0651 2.53581 67.1237 2.4707C67.1823 2.4056 67.2457 2.35026 67.3141 2.30469C67.402 2.24609 67.4996 2.20052 67.6071 2.16797C67.7177 2.13542 67.8382 2.11914 67.9684 2.11914C68.1376 2.11914 68.2923 2.14844 68.4322 2.20703C68.5755 2.26237 68.6992 2.34863 68.8033 2.46582C68.9075 2.58952 68.9872 2.75065 69.0426 2.94922C69.1012 3.14453 69.1305 3.38053 69.1305 3.65723V7.5H68.0563V3.64746C68.0563 3.54329 68.0449 3.4554 68.0221 3.38379C67.9993 3.30892 67.9667 3.2487 67.9244 3.20312C67.8821 3.16081 67.83 3.12988 67.7682 3.11035C67.7096 3.09082 67.6445 3.08105 67.5729 3.08105C67.498 3.08105 67.4329 3.09082 67.3776 3.11035C67.3222 3.12988 67.2734 3.15755 67.2311 3.19336C67.192 3.22591 67.1595 3.26497 67.1334 3.31055C67.1074 3.35286 67.0879 3.40169 67.0748 3.45703C67.0748 3.47005 67.0748 3.48633 67.0748 3.50586C67.0748 3.52214 67.0748 3.54655 67.0748 3.5791V7.5H66.0202V3.64258C66.0202 3.53841 66.0088 3.45052 65.986 3.37891C65.9665 3.30404 65.9355 3.24544 65.8932 3.20312C65.8509 3.16081 65.8004 3.12988 65.7418 3.11035C65.6865 3.09082 65.623 3.08105 65.5514 3.08105C65.4733 3.08105 65.4033 3.09245 65.3415 3.11523C65.2829 3.13477 65.2324 3.16569 65.1901 3.20801C65.1576 3.2373 65.1283 3.27148 65.1022 3.31055C65.0794 3.34961 65.0583 3.39355 65.0387 3.44238V7.5H63.9645V2.2168H64.9801Z" fill="url(#paint6_linear_65_265)"/>
<path d="M61.7253 7.5C61.6895 7.4349 61.6602 7.35677 61.6375 7.26562C61.6179 7.17122 61.6 7.07357 61.5837 6.97266C61.5024 7.05729 61.4096 7.13867 61.3054 7.2168C61.2045 7.29167 61.0906 7.35677 60.9636 7.41211C60.8367 7.4707 60.7 7.51628 60.5535 7.54883C60.407 7.58138 60.2491 7.59766 60.0799 7.59766C59.8064 7.59766 59.5558 7.55859 59.3279 7.48047C59.1033 7.39909 58.9113 7.28841 58.7518 7.14844C58.589 7.01172 58.4621 6.84733 58.3709 6.65527C58.283 6.45996 58.2391 6.25 58.2391 6.02539C58.2391 5.73568 58.296 5.48014 58.41 5.25879C58.5272 5.03418 58.6964 4.84863 58.9178 4.70215C59.1228 4.56543 59.3751 4.46126 59.6746 4.38965C59.9773 4.31803 60.3191 4.28223 60.7 4.28223H61.5496V3.92578C61.5496 3.78906 61.5251 3.66536 61.4763 3.55469C61.4307 3.44401 61.364 3.34798 61.2761 3.2666C61.1817 3.18522 61.0662 3.12337 60.9295 3.08105C60.796 3.03548 60.6414 3.0127 60.4656 3.0127C60.3061 3.0127 60.1661 3.03223 60.0457 3.07129C59.9285 3.11035 59.8308 3.16406 59.7527 3.23242C59.6746 3.29427 59.616 3.37077 59.5769 3.46191C59.5411 3.5498 59.5232 3.64421 59.5232 3.74512H58.3514C58.3546 3.53353 58.4051 3.33008 58.5027 3.13477C58.6004 2.93945 58.7436 2.76693 58.9324 2.61719C59.1147 2.46419 59.3393 2.34375 59.6062 2.25586C59.8764 2.16471 60.184 2.11914 60.5291 2.11914C60.8383 2.11914 61.1264 2.1582 61.3933 2.23633C61.6635 2.3112 61.8962 2.4235 62.0915 2.57324C62.2869 2.72298 62.4398 2.91341 62.5505 3.14453C62.6612 3.3724 62.7165 3.63607 62.7165 3.93555V6.28418C62.7165 6.52181 62.7328 6.73665 62.7654 6.92871C62.8012 7.11751 62.8516 7.28027 62.9167 7.41699V7.5H61.7253ZM60.3045 6.66016C60.4575 6.66016 60.5991 6.64062 60.7293 6.60156C60.8627 6.5625 60.9832 6.51204 61.0906 6.4502C61.198 6.38835 61.2908 6.31836 61.3689 6.24023C61.447 6.16211 61.5072 6.08073 61.5496 5.99609V5.01953H60.7976C60.5437 5.01953 60.324 5.04395 60.1385 5.09277C59.9529 5.13835 59.8048 5.20508 59.6941 5.29297C59.5965 5.36784 59.5232 5.45736 59.4744 5.56152C59.4288 5.66569 59.406 5.78288 59.406 5.91309C59.406 6.02051 59.4256 6.12142 59.4646 6.21582C59.5037 6.30697 59.5607 6.38509 59.6355 6.4502C59.7104 6.5153 59.8032 6.56738 59.9138 6.60645C60.0245 6.64225 60.1547 6.66016 60.3045 6.66016Z" fill="url(#paint7_linear_65_265)"/>
<path d="M57.1229 6.62598C57.0252 6.74316 56.9064 6.8571 56.7665 6.96777C56.6265 7.0752 56.4686 7.17122 56.2928 7.25586C56.0715 7.36328 55.8306 7.44629 55.5702 7.50488C55.3098 7.56673 55.0315 7.59766 54.7352 7.59766C54.4618 7.59766 54.2063 7.56185 53.9687 7.49023C53.731 7.41862 53.5162 7.31771 53.3241 7.1875C53.1321 7.05729 52.9596 6.89941 52.8066 6.71387C52.6568 6.52832 52.5315 6.32161 52.4306 6.09375C52.3167 5.85612 52.2304 5.59408 52.1718 5.30762C52.1132 5.02116 52.0823 4.72005 52.079 4.4043V3.49609C52.0823 3.1901 52.11 2.89714 52.162 2.61719C52.2174 2.33724 52.2971 2.07845 52.4013 1.84082C52.5022 1.61621 52.6227 1.41113 52.7626 1.22559C52.9026 1.04004 53.0621 0.878906 53.2411 0.742188C53.4364 0.598958 53.6513 0.488281 53.8856 0.410156C54.1233 0.332031 54.3804 0.292969 54.6571 0.292969C55.0315 0.292969 55.3635 0.343424 55.6532 0.444336C55.9429 0.545247 56.1903 0.690104 56.3954 0.878906C56.6037 1.07096 56.7681 1.30371 56.8885 1.57715C57.009 1.84733 57.0855 2.15169 57.118 2.49023H55.9657C55.9364 2.30469 55.8924 2.13704 55.8339 1.9873C55.7753 1.83431 55.6971 1.70573 55.5995 1.60156C55.4953 1.49089 55.3667 1.40625 55.2137 1.34766C55.064 1.28906 54.8866 1.25977 54.6815 1.25977C54.5318 1.25977 54.3935 1.28581 54.2665 1.33789C54.1395 1.38672 54.0256 1.45508 53.9247 1.54297C53.8075 1.64388 53.705 1.76921 53.6171 1.91895C53.5325 2.06543 53.4625 2.22982 53.4071 2.41211C53.3583 2.57161 53.3225 2.74251 53.2997 2.9248C53.2769 3.1071 53.2655 3.29427 53.2655 3.48633V4.4043C53.2655 4.62891 53.2802 4.84212 53.3095 5.04395C53.342 5.24577 53.3892 5.43294 53.4511 5.60547C53.4999 5.73568 53.5569 5.85775 53.622 5.97168C53.6903 6.08561 53.7701 6.18652 53.8612 6.27441C53.9752 6.38835 54.107 6.47624 54.2567 6.53809C54.4097 6.59993 54.5823 6.63249 54.7743 6.63574C54.8882 6.63574 55.0038 6.62923 55.121 6.61621C55.2382 6.59993 55.3505 6.57552 55.4579 6.54297C55.562 6.51042 55.6581 6.46973 55.746 6.4209C55.8339 6.36882 55.9038 6.30859 55.9559 6.24023L55.9608 4.81934H54.6718V3.90625H57.1131L57.1229 6.62598Z" fill="url(#paint8_linear_65_265)"/>
<path d="M42.8008 0.927734V2.2168H44.7881V3.09082H42.8008V5.61523C42.8008 5.81055 42.8236 5.97493 42.8692 6.1084C42.918 6.23861 42.9847 6.34115 43.0693 6.41602C43.154 6.49414 43.2549 6.54948 43.3721 6.58203C43.4893 6.61458 43.6178 6.63086 43.7578 6.63086C43.8587 6.63086 43.9629 6.62598 44.0703 6.61621C44.1777 6.60645 44.2819 6.59342 44.3828 6.57715C44.4805 6.56413 44.5716 6.54948 44.6562 6.5332C44.7441 6.51367 44.8174 6.4974 44.876 6.48438L45.0029 7.29004C44.9183 7.34212 44.8157 7.3877 44.6953 7.42676C44.5781 7.46257 44.4512 7.49349 44.3144 7.51953C44.1777 7.54557 44.0345 7.5651 43.8848 7.57812C43.7383 7.5944 43.5918 7.60254 43.4453 7.60254C43.1784 7.60254 42.9326 7.56673 42.708 7.49512C42.4867 7.42025 42.2962 7.30469 42.1367 7.14844C41.9772 6.99544 41.8519 6.7985 41.7608 6.55762C41.6729 6.31673 41.6289 6.02702 41.6289 5.68848V3.09082H40.3497V2.2168H41.6289V0.927734H42.8008Z" fill="url(#paint9_linear_65_265)"/>
<path d="M35.6593 2.96875C35.7277 2.86458 35.8042 2.76855 35.8888 2.68066C35.9735 2.59277 36.063 2.51628 36.1574 2.45117C36.3039 2.34375 36.465 2.26237 36.6408 2.20703C36.8198 2.14844 37.0086 2.11914 37.2072 2.11914C37.4839 2.11914 37.7361 2.15983 37.964 2.24121C38.1951 2.32259 38.392 2.44954 38.5548 2.62207C38.7176 2.7946 38.8429 3.01595 38.9308 3.28613C39.0219 3.55306 39.0675 3.8737 39.0675 4.24805V7.5H37.9005V4.23828C37.9005 4.04297 37.8761 3.87207 37.8273 3.72559C37.7817 3.5791 37.7133 3.46029 37.6222 3.36914C37.5278 3.27148 37.4122 3.19987 37.2755 3.1543C37.1421 3.10547 36.9874 3.08105 36.8117 3.08105C36.6749 3.08105 36.5447 3.09733 36.421 3.12988C36.3006 3.16243 36.1899 3.20964 36.089 3.27148C36.0044 3.32031 35.9246 3.37891 35.8498 3.44727C35.7782 3.51562 35.7147 3.59212 35.6593 3.67676V7.5H34.4924V0H35.6593V2.96875Z" fill="url(#paint10_linear_65_265)"/>
<path d="M28.3763 4.81934C28.3763 4.41895 28.4251 4.05436 28.5228 3.72559C28.6204 3.39355 28.762 3.10872 28.9476 2.87109C29.1331 2.63346 29.3561 2.44954 29.6165 2.31934C29.8802 2.18587 30.1764 2.11914 30.5051 2.11914C30.7005 2.11914 30.8779 2.1403 31.0374 2.18262C31.1969 2.22168 31.3417 2.28027 31.4719 2.3584C31.5566 2.40723 31.6363 2.46582 31.7112 2.53418C31.7861 2.59928 31.856 2.6709 31.9211 2.74902L31.97 2.2168H33.0295V7.35352C33.0295 7.70833 32.9709 8.02246 32.8537 8.2959C32.7398 8.57259 32.5787 8.80697 32.3703 8.99902C32.1588 9.18783 31.9049 9.33105 31.6086 9.42871C31.3157 9.52962 30.9918 9.58008 30.637 9.58008C30.4872 9.58008 30.3229 9.5638 30.1438 9.53125C29.9648 9.4987 29.7858 9.44824 29.6067 9.37988C29.4277 9.31152 29.2568 9.22201 29.094 9.11133C28.9313 9.00065 28.7913 8.86719 28.6741 8.71094L29.2259 8.00293C29.3203 8.11686 29.4212 8.21452 29.5286 8.2959C29.6393 8.38053 29.7516 8.44889 29.8655 8.50098C29.9794 8.55306 30.095 8.59049 30.2122 8.61328C30.3294 8.63932 30.4482 8.65234 30.5686 8.65234C30.777 8.65234 30.9609 8.62305 31.1204 8.56445C31.2831 8.50586 31.4215 8.42122 31.5354 8.31055C31.6396 8.20312 31.7193 8.07129 31.7747 7.91504C31.8332 7.75879 31.8625 7.58138 31.8625 7.38281V7.0166C31.7942 7.08822 31.7226 7.15495 31.6477 7.2168C31.5761 7.27865 31.498 7.33236 31.4133 7.37793C31.2864 7.44954 31.1464 7.50326 30.9934 7.53906C30.8404 7.57812 30.6744 7.59766 30.4954 7.59766C30.1699 7.59766 29.8769 7.53092 29.6165 7.39746C29.3561 7.26074 29.1331 7.07194 28.9476 6.83105C28.7653 6.59342 28.6237 6.31185 28.5228 5.98633C28.4251 5.65755 28.3763 5.30273 28.3763 4.92188V4.81934ZM29.5481 4.92188C29.5481 5.15625 29.5709 5.3776 29.6165 5.58594C29.6653 5.79427 29.7418 5.97493 29.846 6.12793C29.9469 6.28743 30.0755 6.41276 30.2317 6.50391C30.388 6.5918 30.5735 6.63574 30.7883 6.63574C30.9218 6.63574 31.0422 6.62109 31.1497 6.5918C31.2603 6.5625 31.3596 6.52181 31.4475 6.46973C31.5354 6.41439 31.6135 6.34766 31.6819 6.26953C31.7502 6.19141 31.8105 6.10514 31.8625 6.01074V3.69629C31.8105 3.59863 31.747 3.51074 31.6721 3.43262C31.6005 3.35449 31.5175 3.28776 31.4231 3.23242C31.3385 3.18685 31.2441 3.15104 31.1399 3.125C31.0357 3.0957 30.9218 3.08105 30.7981 3.08105C30.58 3.08105 30.3928 3.12663 30.2366 3.21777C30.0804 3.30892 29.9518 3.43424 29.8509 3.59375C29.7467 3.75326 29.6702 3.9388 29.6214 4.15039C29.5725 4.35872 29.5481 4.58171 29.5481 4.81934V4.92188Z" fill="url(#paint11_linear_65_265)"/>
<path d="M22.8314 2.2168H25.6341V6.5332H27.1868V7.5H22.8314V6.5332H24.4574V3.18848H22.8314V2.2168ZM24.3499 0.849609C24.3499 0.755208 24.3662 0.668945 24.3988 0.59082C24.4313 0.50944 24.4785 0.439453 24.5404 0.380859C24.599 0.325521 24.669 0.283203 24.7503 0.253906C24.835 0.221354 24.9294 0.205078 25.0335 0.205078C25.2093 0.205078 25.3509 0.250651 25.4583 0.341797C25.569 0.429688 25.6325 0.54362 25.6488 0.683594C25.6715 0.826823 25.6471 0.952148 25.5755 1.05957C25.5039 1.16374 25.3997 1.23372 25.263 1.26953C25.1947 1.33138 25.1133 1.37207 25.0189 1.3916C24.9245 1.41113 24.8203 1.40299 24.7064 1.36719C24.5892 1.33138 24.4997 1.2679 24.4378 1.17676C24.3792 1.08236 24.3499 0.973307 24.3499 0.849609Z" fill="url(#paint12_linear_65_265)"/>
<path d="M21.1585 7.5H19.9818L17.6723 2.60742L17.6674 7.5H16.4809V0.390625H17.6723L19.9672 5.26367L19.9769 0.390625H21.1585V7.5Z" fill="url(#paint13_linear_65_265)"/>
<path d="M67.8403 19C67.8403 20.3807 66.9449 21.5 65.8404 21.5C64.7358 21.5 63.8404 20.3807 63.8404 19C63.8404 17.6193 64.7358 16.5 65.8404 16.5C66.9449 16.5 67.8403 17.6193 67.8403 19Z" fill="url(#paint14_linear_65_265)"/>
<path d="M29.8411 19C29.8411 20.3807 28.9456 21.5 27.8411 21.5C26.7365 21.5 25.8411 20.3807 25.8411 19C25.8411 17.6193 26.7365 16.5 27.8411 16.5C28.9456 16.5 29.8411 17.6193 29.8411 19Z" fill="url(#paint15_linear_65_265)"/>
<defs>
<linearGradient id="paint0_linear_65_265" x1="84.5497" y1="3.75" x2="84.5497" y2="26.5" gradientUnits="userSpaceOnUse">
<stop stop-color="#2A209E"/>
<stop offset="1" stop-color="#470060"/>
</linearGradient>
<linearGradient id="paint1_linear_65_265" x1="64.6889" y1="9.28125" x2="64.6889" y2="26.8281" gradientUnits="userSpaceOnUse">
<stop stop-color="#2A209E"/>
<stop offset="1" stop-color="#470060"/>
</linearGradient>
<linearGradient id="paint2_linear_65_265" x1="45.7815" y1="9.59375" x2="45.7815" y2="26.5" gradientUnits="userSpaceOnUse">
<stop stop-color="#2A209E"/>
<stop offset="1" stop-color="#470060"/>
</linearGradient>
<linearGradient id="paint3_linear_65_265" x1="26.5146" y1="9.28125" x2="26.5146" y2="26.8281" gradientUnits="userSpaceOnUse">
<stop stop-color="#2A209E"/>
<stop offset="1" stop-color="#470060"/>
</linearGradient>
<linearGradient id="paint4_linear_65_265" x1="7.81016" y1="3.75" x2="7.81016" y2="26.5" gradientUnits="userSpaceOnUse">
<stop stop-color="#2A209E"/>
<stop offset="1" stop-color="#470060"/>
</linearGradient>
<linearGradient id="paint5_linear_65_265" x1="72.5391" y1="2.11914" x2="72.5391" y2="7.59766" gradientUnits="userSpaceOnUse">
<stop stop-color="#2A209E"/>
<stop offset="1" stop-color="#470060"/>
</linearGradient>
<linearGradient id="paint6_linear_65_265" x1="66.5475" y1="2.11914" x2="66.5475" y2="7.5" gradientUnits="userSpaceOnUse">
<stop stop-color="#2A209E"/>
<stop offset="1" stop-color="#470060"/>
</linearGradient>
<linearGradient id="paint7_linear_65_265" x1="60.5779" y1="2.11914" x2="60.5779" y2="7.59766" gradientUnits="userSpaceOnUse">
<stop stop-color="#2A209E"/>
<stop offset="1" stop-color="#470060"/>
</linearGradient>
<linearGradient id="paint8_linear_65_265" x1="54.601" y1="0.292969" x2="54.601" y2="7.59766" gradientUnits="userSpaceOnUse">
<stop stop-color="#2A209E"/>
<stop offset="1" stop-color="#470060"/>
</linearGradient>
<linearGradient id="paint9_linear_65_265" x1="42.6763" y1="0.927734" x2="42.6763" y2="7.60254" gradientUnits="userSpaceOnUse">
<stop stop-color="#2A209E"/>
<stop offset="1" stop-color="#470060"/>
</linearGradient>
<linearGradient id="paint10_linear_65_265" x1="36.7799" y1="0" x2="36.7799" y2="7.5" gradientUnits="userSpaceOnUse">
<stop stop-color="#2A209E"/>
<stop offset="1" stop-color="#470060"/>
</linearGradient>
<linearGradient id="paint11_linear_65_265" x1="30.7029" y1="2.11914" x2="30.7029" y2="9.58008" gradientUnits="userSpaceOnUse">
<stop stop-color="#2A209E"/>
<stop offset="1" stop-color="#470060"/>
</linearGradient>
<linearGradient id="paint12_linear_65_265" x1="25.0091" y1="0.205078" x2="25.0091" y2="7.5" gradientUnits="userSpaceOnUse">
<stop stop-color="#2A209E"/>
<stop offset="1" stop-color="#470060"/>
</linearGradient>
<linearGradient id="paint13_linear_65_265" x1="18.8197" y1="0.390625" x2="18.8197" y2="7.5" gradientUnits="userSpaceOnUse">
<stop stop-color="#2A209E"/>
<stop offset="1" stop-color="#470060"/>
</linearGradient>
<linearGradient id="paint14_linear_65_265" x1="65.8404" y1="16.5" x2="65.8404" y2="21.5" gradientUnits="userSpaceOnUse">
<stop stop-color="#2A209E"/>
<stop offset="1" stop-color="#470060"/>
</linearGradient>
<linearGradient id="paint15_linear_65_265" x1="27.8411" y1="16.5" x2="27.8411" y2="21.5" gradientUnits="userSpaceOnUse">
<stop stop-color="#2A209E"/>
<stop offset="1" stop-color="#470060"/>
</linearGradient>
</defs>
</svg>
