<svg width="22" height="14" viewBox="0 0 22 14" fill="none" xmlns="http://www.w3.org/2000/svg">
<path d="M1 14V11.6667H21V14H1ZM2.15 6.94167L0.85 6.06667L1.7 4.31667H0V2.56667H1.7L0.85 0.875L2.15 0L3 1.69167L3.85 0L5.15 0.875L4.3 2.56667H6V4.31667H4.3L5.15 6.06667L3.85 6.94167L3 5.19167L2.15 6.94167ZM10.15 6.94167L8.85 6.06667L9.7 4.31667H8V2.56667H9.7L8.85 0.875L10.15 0L11 1.69167L11.85 0L13.15 0.875L12.3 2.56667H14V4.31667H12.3L13.15 6.06667L11.85 6.94167L11 5.19167L10.15 6.94167ZM18.15 6.94167L16.85 6.06667L17.7 4.31667H16V2.56667H17.7L16.85 0.875L18.15 0L19 1.69167L19.85 0L21.15 0.875L20.3 2.56667H22V4.31667H20.3L21.15 6.06667L19.85 6.94167L19 5.19167L18.15 6.94167Z" fill="url(#paint0_linear_77_3376)"/>
<defs>
<linearGradient id="paint0_linear_77_3376" x1="11" y1="0" x2="11" y2="14" gradientUnits="userSpaceOnUse">
<stop stop-color="#2A209E"/>
<stop offset="1" stop-color="#470060" stop-opacity="0.88"/>
</linearGradient>
</defs>
</svg>
