<svg width="10" height="17" viewBox="0 0 10 17" fill="none" xmlns="http://www.w3.org/2000/svg">
<path d="M8 1.92369C8.26522 1.92369 8.51957 2.02501 8.70711 2.20538C8.89464 2.38575 9 2.63038 9 2.88546V14.4267C9 14.6818 8.89464 14.9264 8.70711 15.1068C8.51957 15.2872 8.26522 15.3885 8 15.3885H2C1.73478 15.3885 1.48043 15.2872 1.29289 15.1068C1.10536 14.9264 1 14.6818 1 14.4267V2.88546C1 2.63038 1.10536 2.38575 1.29289 2.20538C1.48043 2.02501 1.73478 1.92369 2 1.92369H8ZM2 0.961914C1.46957 0.961914 0.960859 1.16457 0.585786 1.52531C0.210714 1.88604 0 2.3753 0 2.88546V14.4267C0 14.9369 0.210714 15.4261 0.585786 15.7869C0.960859 16.1476 1.46957 16.3503 2 16.3503H8C8.53043 16.3503 9.03914 16.1476 9.41421 15.7869C9.78929 15.4261 10 14.9369 10 14.4267V2.88546C10 2.3753 9.78929 1.88604 9.41421 1.52531C9.03914 1.16457 8.53043 0.961914 8 0.961914H2Z" fill="url(#paint0_linear_147_115)"/>
<path d="M5 14.4267C5.26522 14.4267 5.51957 14.3254 5.70711 14.145C5.89464 13.9647 6 13.72 6 13.4649C6 13.2099 5.89464 12.9652 5.70711 12.7849C5.51957 12.6045 5.26522 12.5032 5 12.5032C4.73478 12.5032 4.48043 12.6045 4.29289 12.7849C4.10536 12.9652 4 13.2099 4 13.4649C4 13.72 4.10536 13.9647 4.29289 14.145C4.48043 14.3254 4.73478 14.4267 5 14.4267Z" fill="url(#paint1_linear_147_115)"/>
<defs>
<linearGradient id="paint0_linear_147_115" x1="5" y1="0.961914" x2="5" y2="16.3503" gradientUnits="userSpaceOnUse">
<stop stop-color="#2A209E"/>
<stop offset="1" stop-color="#470060" stop-opacity="0.88"/>
</linearGradient>
<linearGradient id="paint1_linear_147_115" x1="5" y1="12.5032" x2="5" y2="14.4267" gradientUnits="userSpaceOnUse">
<stop stop-color="#2A209E"/>
<stop offset="1" stop-color="#470060" stop-opacity="0.88"/>
</linearGradient>
</defs>
</svg>
