<svg width="16" height="18" viewBox="0 0 16 18" fill="none" xmlns="http://www.w3.org/2000/svg">
<path d="M12.9738 2.70235H2.87471L3.96878 1.54192C4.12725 1.37253 4.21628 1.14279 4.21628 0.903236C4.21628 0.663683 4.12725 0.433941 3.96878 0.264552C3.8103 0.095162 3.59536 0 3.37125 0C3.14713 0 2.93219 0.095162 2.77372 0.264552L0.248941 2.96322C0.17006 3.04684 0.107451 3.14633 0.0647242 3.25595C0.0219977 3.36557 0 3.48315 0 3.6019C0 3.72065 0.0219977 3.83823 0.0647242 3.94785C0.107451 4.05747 0.17006 4.15696 0.248941 4.24059L2.77372 6.93925C2.85195 7.02357 2.94503 7.09049 3.04759 7.13616C3.15015 7.18183 3.26015 7.20534 3.37125 7.20534C3.48235 7.20534 3.59235 7.18183 3.6949 7.13616C3.79746 7.09049 3.89054 7.02357 3.96878 6.93925C4.04766 6.85563 4.11027 6.75613 4.15299 6.64652C4.19572 6.5369 4.21772 6.41932 4.21772 6.30057C4.21772 6.18182 4.19572 6.06424 4.15299 5.95462C4.11027 5.845 4.04766 5.74551 3.96878 5.66188L2.87471 4.50146H12.9738C13.1462 4.49788 13.3176 4.53064 13.4782 4.59788C13.6388 4.66512 13.7854 4.76551 13.9096 4.89332C14.0339 5.02113 14.1334 5.17385 14.2024 5.34277C14.2714 5.51168 14.3087 5.69348 14.3119 5.87778V8.09968C14.3119 8.33825 14.4006 8.56706 14.5584 8.73576C14.7163 8.90446 14.9303 8.99923 15.1535 8.99923C15.3767 8.99923 15.5908 8.90446 15.7486 8.73576C15.9065 8.56706 15.9951 8.33825 15.9951 8.09968V5.87778C15.9918 5.45722 15.911 5.04149 15.7574 4.6543C15.6038 4.26712 15.3803 3.91606 15.0998 3.6212C14.8192 3.32633 14.4871 3.09341 14.1223 2.93576C13.7575 2.7781 13.3673 2.69879 12.9738 2.70235ZM13.2263 11.0592C13.0678 10.8898 12.8529 10.7947 12.6288 10.7947C12.4046 10.7947 12.1897 10.8898 12.0312 11.0592C11.8727 11.2286 11.7837 11.4583 11.7837 11.6979C11.7837 11.9375 11.8727 12.1672 12.0312 12.3366L13.1253 13.497H3.02619C2.85378 13.5006 2.68239 13.4678 2.52182 13.4006C2.36125 13.3333 2.21464 13.233 2.09038 13.1052C1.96612 12.9773 1.86663 12.8246 1.7976 12.6557C1.72857 12.4868 1.69135 12.305 1.68806 12.1207V9.89879C1.68806 9.66021 1.5994 9.43141 1.44157 9.26271C1.28374 9.09401 1.06968 8.99923 0.846471 8.99923C0.623267 8.99923 0.409205 9.09401 0.251376 9.26271C0.0935472 9.43141 0.00487983 9.66021 0.00487983 9.89879V12.1207C0.00818148 12.5412 0.0889506 12.957 0.242575 13.3442C0.3962 13.7313 0.619672 14.0824 0.900229 14.3773C1.18079 14.6721 1.51294 14.9051 1.87771 15.0627C2.24249 15.2204 2.63274 15.2997 3.02619 15.2961H13.1253L12.0312 16.4565C11.9523 16.5402 11.8897 16.6397 11.847 16.7493C11.8043 16.8589 11.7823 16.9765 11.7823 17.0952C11.7823 17.214 11.8043 17.3316 11.847 17.4412C11.8897 17.5508 11.9523 17.6503 12.0312 17.7339C12.1095 17.8182 12.2025 17.8851 12.3051 17.9308C12.4077 17.9765 12.5177 18 12.6288 18C12.7399 18 12.8499 17.9765 12.9524 17.9308C13.055 17.8851 13.148 17.8182 13.2263 17.7339L15.7511 15.0352C15.8299 14.9516 15.8925 14.8521 15.9353 14.7425C15.978 14.6329 16 14.5153 16 14.3966C16 14.2778 15.978 14.1602 15.9353 14.0506C15.8925 13.941 15.8299 13.8415 15.7511 13.7579L13.2263 11.0592Z" fill="url(#paint0_linear_73_1204)"/>
<defs>
<linearGradient id="paint0_linear_73_1204" x1="8" y1="0" x2="8" y2="18" gradientUnits="userSpaceOnUse">
<stop stop-color="#2A209E"/>
<stop offset="1" stop-color="#470060" stop-opacity="0.88"/>
</linearGradient>
</defs>
</svg>
