<svg width="19" height="20" viewBox="0 0 19 20" fill="none" xmlns="http://www.w3.org/2000/svg">
<path d="M9.50007 12.4094C10.9938 12.4094 12.2047 11.1985 12.2047 9.70478C12.2047 8.21104 10.9938 7.00012 9.50007 7.00012C8.00633 7.00012 6.79541 8.21104 6.79541 9.70478C6.79541 11.1985 8.00633 12.4094 9.50007 12.4094Z" stroke="url(#paint0_linear_74_2688)" stroke-width="1.5"/>
<path d="M11.0912 1.13704C10.7604 1 10.3402 1 9.5 1C8.65975 1 8.23963 1 7.90876 1.13704C7.68985 1.22765 7.49094 1.36053 7.3234 1.52806C7.15587 1.69559 7.023 1.8945 6.93238 2.11342C6.84944 2.31446 6.81608 2.54977 6.80346 2.89146C6.79784 3.13847 6.72953 3.38001 6.60495 3.59338C6.48036 3.80675 6.30359 3.98495 6.09123 4.11126C5.87567 4.2321 5.63292 4.29617 5.3858 4.29743C5.13867 4.29869 4.89529 4.23711 4.6785 4.11847C4.37558 3.95799 4.1565 3.86964 3.93923 3.84079C3.4653 3.77847 2.98602 3.90688 2.60673 4.19781C2.32365 4.41688 2.11268 4.78021 1.69256 5.50776C1.27244 6.23531 1.06147 6.59864 1.01549 6.95475C0.984511 7.18956 1.00009 7.42818 1.06135 7.65697C1.12261 7.88575 1.22834 8.10023 1.37251 8.28815C1.50594 8.46125 1.69256 8.6064 1.98196 8.78851C2.40839 9.05627 2.68246 9.51246 2.68246 10.0155C2.68246 10.5186 2.40839 10.9748 1.98196 11.2416C1.69256 11.4246 1.50504 11.5698 1.37251 11.7429C1.22834 11.9308 1.12261 12.1453 1.06135 12.3741C1.00009 12.6029 0.984511 12.8415 1.01549 13.0763C1.06237 13.4315 1.27244 13.7957 1.69166 14.5233C2.11268 15.2508 2.32274 15.6142 2.60673 15.8332C2.79465 15.9774 3.00913 16.0831 3.23791 16.1444C3.4667 16.2057 3.70532 16.2212 3.94013 16.1903C4.1565 16.1614 4.37558 16.0731 4.6785 15.9126C4.89529 15.7939 5.13867 15.7324 5.3858 15.7336C5.63292 15.7349 5.87567 15.7989 6.09123 15.9198C6.52668 16.1722 6.78543 16.6365 6.80346 17.1396C6.81608 17.4822 6.84854 17.7166 6.93238 17.9176C7.023 18.1365 7.15587 18.3354 7.3234 18.503C7.49094 18.6705 7.68985 18.8034 7.90876 18.894C8.23963 19.031 8.65975 19.031 9.5 19.031C10.3402 19.031 10.7604 19.031 11.0912 18.894C11.3102 18.8034 11.5091 18.6705 11.6766 18.503C11.8441 18.3354 11.977 18.1365 12.0676 17.9176C12.1506 17.7166 12.1839 17.4822 12.1965 17.1396C12.2146 16.6365 12.4733 16.1713 12.9088 15.9198C13.1243 15.7989 13.3671 15.7349 13.6142 15.7336C13.8613 15.7324 14.1047 15.7939 14.3215 15.9126C14.6244 16.0731 14.8435 16.1614 15.0599 16.1903C15.2947 16.2212 15.5333 16.2057 15.7621 16.1444C15.9909 16.0831 16.2054 15.9774 16.3933 15.8332C16.6773 15.6151 16.8873 15.2508 17.3074 14.5233C17.7276 13.7957 17.9385 13.4324 17.9845 13.0763C18.0155 12.8415 17.9999 12.6029 17.9386 12.3741C17.8774 12.1453 17.7717 11.9308 17.6275 11.7429C17.4941 11.5698 17.3074 11.4246 17.018 11.2425C16.8068 11.1142 16.6317 10.9342 16.5092 10.7196C16.3867 10.5049 16.3207 10.2627 16.3175 10.0155C16.3175 9.51246 16.5916 9.05627 17.018 8.78941C17.3074 8.6064 17.495 8.46125 17.6275 8.28815C17.7717 8.10023 17.8774 7.88575 17.9386 7.65697C17.9999 7.42818 18.0155 7.18956 17.9845 6.95475C17.9376 6.59954 17.7276 6.23531 17.3083 5.50776C16.8873 4.78021 16.6773 4.41688 16.3933 4.19781C16.2054 4.05364 15.9909 3.94791 15.7621 3.88665C15.5333 3.82539 15.2947 3.80981 15.0599 3.84079C14.8435 3.86964 14.6244 3.95799 14.3206 4.11847C14.1039 4.23695 13.8607 4.29844 13.6138 4.29718C13.3668 4.29592 13.1242 4.23194 12.9088 4.11126C12.6964 3.98495 12.5196 3.80675 12.3951 3.59338C12.2705 3.38001 12.2022 3.13847 12.1965 2.89146C12.1839 2.54887 12.1515 2.31446 12.0676 2.11342C11.977 1.8945 11.8441 1.69559 11.6766 1.52806C11.5091 1.36053 11.3102 1.22765 11.0912 1.13704Z" stroke="url(#paint1_linear_74_2688)" stroke-width="1.5"/>
<defs>
<linearGradient id="paint0_linear_74_2688" x1="9.50007" y1="7.00012" x2="9.50007" y2="12.4094" gradientUnits="userSpaceOnUse">
<stop stop-color="#2A209E"/>
<stop offset="1" stop-color="#470060" stop-opacity="0.88"/>
</linearGradient>
<linearGradient id="paint1_linear_74_2688" x1="9.5" y1="1" x2="9.5" y2="19.031" gradientUnits="userSpaceOnUse">
<stop stop-color="#2A209E"/>
<stop offset="1" stop-color="#470060" stop-opacity="0.88"/>
</linearGradient>
</defs>
</svg>
