<svg width="35" height="30" viewBox="0 0 35 30" fill="none" xmlns="http://www.w3.org/2000/svg">
<path d="M12.505 4.99583C12.505 3.67086 13.0313 2.40015 13.968 1.46325C14.9047 0.526345 16.1752 0 17.5 0C18.8248 0 20.0953 0.526345 21.032 1.46325C21.9687 2.40015 22.495 3.67086 22.495 4.99583C22.495 6.32081 21.9687 7.59152 21.032 8.52842C20.0953 9.46532 18.8248 9.99167 17.5 9.99167C16.1752 9.99167 14.9047 9.46532 13.968 8.52842C13.0313 7.59152 12.505 6.32081 12.505 4.99583ZM17.5 2.50042C17.1724 2.50042 16.8479 2.56496 16.5452 2.69037C16.2425 2.81577 15.9675 2.99959 15.7358 3.23131C15.5041 3.46303 15.3203 3.73812 15.1949 4.04088C15.0695 4.34364 15.005 4.66813 15.005 4.99583C15.005 5.32353 15.0695 5.64803 15.1949 5.95079C15.3203 6.25354 15.5041 6.52864 15.7358 6.76036C15.9675 6.99208 16.2425 7.17589 16.5452 7.3013C16.8479 7.4267 17.1724 7.49125 17.5 7.49125C18.1617 7.49125 18.7963 7.22834 19.2642 6.76036C19.7321 6.29238 19.995 5.65766 19.995 4.99583C19.995 4.33401 19.7321 3.69929 19.2642 3.23131C18.7963 2.76333 18.1617 2.50042 17.5 2.50042ZM25 6.24604C25 5.7535 25.097 5.26579 25.2855 4.81074C25.4739 4.35569 25.7501 3.94223 26.0983 3.59395C26.4466 3.24567 26.86 2.9694 27.3149 2.78091C27.7699 2.59243 28.2575 2.49542 28.75 2.49542C29.2425 2.49542 29.7301 2.59243 30.1851 2.78091C30.64 2.9694 31.0534 3.24567 31.4017 3.59395C31.7499 3.94223 32.0261 4.35569 32.2146 4.81074C32.403 5.26579 32.5 5.7535 32.5 6.24604C32.5 7.24077 32.1049 8.19476 31.4017 8.89813C30.6984 9.60151 29.7446 9.99667 28.75 9.99667C27.7554 9.99667 26.8016 9.60151 26.0983 8.89813C25.3951 8.19476 25 7.24077 25 6.24604ZM28.75 4.99583C28.4185 4.99583 28.1005 5.12755 27.8661 5.36201C27.6317 5.59647 27.5 5.91446 27.5 6.24604C27.5 6.57762 27.6317 6.89561 27.8661 7.13007C28.1005 7.36453 28.4185 7.49625 28.75 7.49625C29.0815 7.49625 29.3995 7.36453 29.6339 7.13007C29.8683 6.89561 30 6.57762 30 6.24604C30 5.91446 29.8683 5.59647 29.6339 5.36201C29.3995 5.12755 29.0815 4.99583 28.75 4.99583ZM6.25 2.49542C5.25544 2.49542 4.30161 2.89057 3.59835 3.59395C2.89509 4.29733 2.5 5.25131 2.5 6.24604C2.5 7.24077 2.89509 8.19476 3.59835 8.89813C4.30161 9.60151 5.25544 9.99667 6.25 9.99667C7.24456 9.99667 8.19839 9.60151 8.90165 8.89813C9.60491 8.19476 10 7.24077 10 6.24604C10 5.25131 9.60491 4.29733 8.90165 3.59395C8.19839 2.89057 7.24456 2.49542 6.25 2.49542ZM5 6.24604C5 5.91446 5.1317 5.59647 5.36612 5.36201C5.60054 5.12755 5.91848 4.99583 6.25 4.99583C6.58152 4.99583 6.89946 5.12755 7.13388 5.36201C7.3683 5.59647 7.5 5.91446 7.5 6.24604C7.5 6.57762 7.3683 6.89561 7.13388 7.13007C6.89946 7.36453 6.58152 7.49625 6.25 7.49625C5.91848 7.49625 5.60054 7.36453 5.36612 7.13007C5.1317 6.89561 5 6.57762 5 6.24604ZM8.17 12.4971C7.73001 13.2568 7.49886 14.1195 7.5 14.9975H2.5V21.2485C2.4998 21.8705 2.65424 22.4827 2.94942 23.0301C3.2446 23.5775 3.67125 24.0429 4.19097 24.3844C4.71069 24.7259 5.30716 24.9328 5.92669 24.9864C6.54622 25.04 7.16935 24.9387 7.74 24.6916C7.925 25.5193 8.215 26.3094 8.59 27.047C7.64116 27.4302 6.61277 27.5745 5.59514 27.4673C4.57751 27.36 3.60177 27.0045 2.75361 26.432C1.90544 25.8595 1.2108 25.0874 0.730682 24.1836C0.250565 23.2798 -0.000340119 22.272 3.46033e-07 21.2485V14.9975C3.46033e-07 14.3343 0.263392 13.6984 0.732233 13.2294C1.20107 12.7605 1.83696 12.4971 2.5 12.4971H8.17ZM26.41 27.047C27.3588 27.4302 28.3872 27.5745 29.4049 27.4673C30.4225 27.36 31.3982 27.0045 32.2464 26.432C33.0946 25.8595 33.7892 25.0874 34.2693 24.1836C34.7494 23.2798 35.0003 22.272 35 21.2485V14.9975C35 14.3343 34.7366 13.6984 34.2678 13.2294C33.7989 12.7605 33.163 12.4971 32.5 12.4971H26.83C27.255 13.2322 27.5 14.0848 27.5 14.9975H32.5V21.2485C32.5002 21.8705 32.3458 22.4827 32.0506 23.0301C31.7554 23.5775 31.3288 24.0429 30.809 24.3844C30.2893 24.7259 29.6928 24.9328 29.0733 24.9864C28.4538 25.04 27.8307 24.9387 27.26 24.6916C27.0725 25.5193 26.785 26.3094 26.41 27.047ZM12.5 12.4946C11.837 12.4946 11.2011 12.758 10.7322 13.2269C10.2634 13.6959 10 14.3318 10 14.995V22.4988C10 24.4882 10.7902 26.3962 12.1967 27.8029C13.6032 29.2097 15.5109 30 17.5 30C19.4891 30 21.3968 29.2097 22.8033 27.8029C24.2098 26.3962 25 24.4882 25 22.4988V14.9975C25 14.3343 24.7366 13.6984 24.2678 13.2294C23.7989 12.7605 23.163 12.4971 22.5 12.4971H12.5V12.4946ZM12.5 14.995H22.5V22.4988C22.5 23.8251 21.9732 25.097 21.0355 26.0349C20.0979 26.9727 18.8261 27.4996 17.5 27.4996C16.1739 27.4996 14.9021 26.9727 13.9645 26.0349C13.0268 25.097 12.5 23.8251 12.5 22.4988V14.9975V14.995Z" fill="url(#paint0_linear_74_1784)"/>
<defs>
<linearGradient id="paint0_linear_74_1784" x1="17.5" y1="0" x2="17.5" y2="30" gradientUnits="userSpaceOnUse">
<stop stop-color="#2A209E"/>
<stop offset="1" stop-color="#470060" stop-opacity="0.88"/>
</linearGradient>
</defs>
</svg>
