<svg width="20" height="15" viewBox="0 0 20 15" fill="none" xmlns="http://www.w3.org/2000/svg">
<path d="M2.14286 0C0.967857 0 0 1.01625 0 2.25V12.75C0 13.9838 0.967857 15 2.14286 15H17.8571C19.0321 15 20 13.9838 20 12.75V2.25C20 1.01625 19.0321 0 17.8571 0H2.14286ZM2.14286 1.5H17.8571C18.2614 1.5 18.5714 1.8255 18.5714 2.25V12.75C18.5714 13.1745 18.2614 13.5 17.8571 13.5H2.14286C1.73857 13.5 1.42857 13.1745 1.42857 12.75V2.25C1.42857 1.8255 1.73857 1.5 2.14286 1.5ZM6.42857 3C4.85714 3 3.57143 4.35 3.57143 6C3.57143 6.83475 3.91214 7.58775 4.44214 8.133C3.95595 8.4775 3.55735 8.9416 3.28109 9.48488C3.00484 10.0282 2.85929 10.6341 2.85714 11.25H4.28571C4.28571 9.999 5.23714 9 6.42857 9C7.62 9 8.57143 9.999 8.57143 11.25H10C9.99785 10.6341 9.85231 10.0282 9.57605 9.48488C9.29979 8.9416 8.9012 8.4775 8.415 8.133C8.945 7.58775 9.28571 6.8355 9.28571 6C9.28571 4.35 8 3 6.42857 3ZM11.4286 3.75V5.25H17.1429V3.75H11.4286ZM6.42857 4.5C7.22643 4.5 7.85714 5.16225 7.85714 6C7.85714 6.83775 7.22643 7.5 6.42857 7.5C5.63071 7.5 5 6.83775 5 6C5 5.16225 5.63071 4.5 6.42857 4.5ZM11.4286 6.75V8.25H17.1429V6.75H11.4286ZM11.4286 9.75V11.25H15V9.75H11.4286Z" fill="url(#paint0_linear_77_3370)"/>
<defs>
<linearGradient id="paint0_linear_77_3370" x1="10" y1="0" x2="10" y2="15" gradientUnits="userSpaceOnUse">
<stop stop-color="#2A209E"/>
<stop offset="1" stop-color="#470060" stop-opacity="0.88"/>
</linearGradient>
</defs>
</svg>
