<svg width="17" height="17" viewBox="0 0 17 17" fill="none" xmlns="http://www.w3.org/2000/svg">
<path fill-rule="evenodd" clip-rule="evenodd" d="M11.3235 6.06058C11.3235 6.86426 11.0054 7.63503 10.4391 8.20332C9.87279 8.77162 9.10474 9.09088 8.3039 9.09088C7.50305 9.09088 6.735 8.77162 6.16872 8.20332C5.60244 7.63503 5.2843 6.86426 5.2843 6.06058C5.2843 5.25689 5.60244 4.48612 6.16872 3.91783C6.735 3.34954 7.50305 3.03027 8.3039 3.03027C9.10474 3.03027 9.87279 3.34954 10.4391 3.91783C11.0054 4.48612 11.3235 5.25689 11.3235 6.06058ZM9.81369 6.06058C9.81369 6.46242 9.65463 6.8478 9.37149 7.13195C9.08834 7.4161 8.70432 7.57573 8.3039 7.57573C7.90347 7.57573 7.51945 7.4161 7.23631 7.13195C6.95317 6.8478 6.7941 6.46242 6.7941 6.06058C6.7941 5.65873 6.95317 5.27335 7.23631 4.9892C7.51945 4.70506 7.90347 4.54543 8.3039 4.54543C8.70432 4.54543 9.08834 4.70506 9.37149 4.9892C9.65463 5.27335 9.81369 5.65873 9.81369 6.06058Z" fill="url(#paint0_linear_65_257)" fill-opacity="0.88"/>
<path fill-rule="evenodd" clip-rule="evenodd" d="M8.30389 0C3.71788 0 0 3.73106 0 8.33333C0 12.9356 3.71788 16.6667 8.30389 16.6667C12.8899 16.6667 16.6078 12.9356 16.6078 8.33333C16.6078 3.73106 12.8899 0 8.30389 0ZM1.5098 8.33333C1.5098 9.91667 2.04804 11.3742 2.95014 12.5318C3.58368 11.6969 4.40098 11.0203 5.33822 10.5548C6.27545 10.0893 7.30723 9.84757 8.35295 9.84848C9.38515 9.8475 10.404 10.083 11.3317 10.537C12.2595 10.9909 13.0718 11.6515 13.7067 12.4682C14.3608 11.6073 14.8012 10.6024 14.9915 9.53681C15.1817 8.47118 15.1164 7.3754 14.8009 6.34014C14.4854 5.30487 13.9288 4.35988 13.1771 3.58336C12.4254 2.80684 11.5003 2.22111 10.4783 1.87463C9.45625 1.52815 8.36669 1.43089 7.29977 1.59089C6.23284 1.75089 5.21921 2.16355 4.34276 2.79474C3.4663 3.42592 2.75222 4.25748 2.25959 5.2206C1.76695 6.18373 1.50993 7.25073 1.5098 8.33333ZM8.30389 15.1515C6.74423 15.1539 5.23165 14.6154 4.0221 13.6273C4.50896 12.9278 5.15697 12.3568 5.911 11.9626C6.66504 11.5685 7.50278 11.363 8.35295 11.3636C9.19252 11.363 10.0201 11.5633 10.7671 11.948C11.514 12.3328 12.1587 12.8908 12.6476 13.5758C11.4286 14.596 9.89112 15.1537 8.30389 15.1515Z" fill="url(#paint1_linear_65_257)" fill-opacity="0.88"/>
<defs>
<linearGradient id="paint0_linear_65_257" x1="8.3039" y1="3.03027" x2="8.3039" y2="9.09088" gradientUnits="userSpaceOnUse">
<stop stop-color="#2A209E"/>
<stop offset="1" stop-color="#470060" stop-opacity="0.88"/>
</linearGradient>
<linearGradient id="paint1_linear_65_257" x1="8.30389" y1="0" x2="8.30389" y2="16.6667" gradientUnits="userSpaceOnUse">
<stop stop-color="#2A209E"/>
<stop offset="1" stop-color="#470060" stop-opacity="0.88"/>
</linearGradient>
</defs>
</svg>
