<svg width="21" height="17" viewBox="0 0 21 17" fill="none" xmlns="http://www.w3.org/2000/svg">
<path d="M1 7.11725H2.10306M2.10306 7.11725H18.8969M2.10306 7.11725C2.11572 7.06391 2.12944 7.01261 2.14528 6.96029C2.2018 6.79669 2.26878 6.63668 2.34583 6.4812L3.97878 2.9111C4.30072 2.20632 4.46222 1.85239 4.71767 1.59386C4.94356 1.36509 5.22011 1.19069 5.52622 1.08297C5.8735 0.961914 6.27039 0.961914 7.06522 0.961914H13.9348C14.7286 0.961914 15.1276 0.961914 15.4738 1.08297C15.7799 1.19069 16.0564 1.36509 16.2813 1.59386C16.5367 1.85239 16.6982 2.20529 17.0202 2.91008L18.6594 6.49351C18.7639 6.72229 18.8178 6.83924 18.8547 6.96029C18.8706 7.01159 18.8843 7.06391 18.8969 7.11725M2.10306 7.11725C2.08983 7.17628 2.07926 7.23584 2.07139 7.29576C2.05556 7.42502 2.05556 7.55428 2.05556 7.81486V13.2726M18.8969 7.11725H20M18.8969 7.11725C18.9107 7.17675 18.9202 7.23626 18.9276 7.29576C18.9444 7.42297 18.9444 7.55223 18.9444 7.8087V13.2726M2.05556 13.2726H6.27778M2.05556 13.2726V14.2985C2.05556 14.8426 2.27798 15.3645 2.67389 15.7493C3.0698 16.1341 3.60677 16.3503 4.16667 16.3503C4.72657 16.3503 5.26354 16.1341 5.65945 15.7493C6.05536 15.3645 6.27778 14.8426 6.27778 14.2985V13.2726M18.9444 13.2726H14.7222M18.9444 13.2726V14.2985C18.9444 14.8426 18.722 15.3645 18.3261 15.7493C17.9302 16.1341 17.3932 16.3503 16.8333 16.3503C16.2734 16.3503 15.7365 16.1341 15.3406 15.7493C14.9446 15.3645 14.7222 14.8426 14.7222 14.2985V13.2726M14.7222 13.2726H6.27778" stroke="url(#paint0_linear_147_118)" stroke-linecap="round" stroke-linejoin="round"/>
<defs>
<linearGradient id="paint0_linear_147_118" x1="10.5" y1="0.961914" x2="10.5" y2="16.3503" gradientUnits="userSpaceOnUse">
<stop stop-color="#2A209E"/>
<stop offset="1" stop-color="#470060"/>
</linearGradient>
</defs>
</svg>
