<svg width="20" height="18" viewBox="0 0 20 18" fill="none" xmlns="http://www.w3.org/2000/svg">
<path d="M2.08843 5.92383L3.28521 16.1336H16.7157L17.9115 5.92383L14.1826 8.41955L9.99998 2.54019L5.81731 8.41955L2.08843 5.92383ZM1.44587 3.24885L5.3505 5.86314L9.24304 0.391804C9.32899 0.270717 9.44249 0.171991 9.57411 0.103842C9.70573 0.0356931 9.85165 9.15088e-05 9.99974 1.76174e-07C10.1478 -9.11565e-05 10.2938 0.0353305 10.4255 0.103317C10.5572 0.171304 10.6708 0.26989 10.7569 0.39087L14.6495 5.86314L18.555 3.24979C18.7028 3.15105 18.8757 3.09685 19.0532 3.09362C19.2307 3.09038 19.4054 3.13822 19.5567 3.23151C19.708 3.32479 19.8295 3.4596 19.9069 3.62002C19.9844 3.78044 20.0144 3.95975 19.9936 4.13678L18.4667 17.1756C18.44 17.4027 18.3313 17.6121 18.1611 17.764C17.9909 17.916 17.7711 18 17.5433 18H2.4576C2.22984 18 2.01001 17.916 1.8398 17.764C1.6696 17.6121 1.56086 17.4027 1.53421 17.1756L0.00639451 4.13491C-0.0143962 3.95782 0.0157553 3.77845 0.0932836 3.61802C0.170812 3.45759 0.292474 3.3228 0.443884 3.22961C0.595293 3.13641 0.770117 3.08869 0.947681 3.0921C1.12525 3.09551 1.29812 3.14991 1.44587 3.24885ZM10.0009 12.3989C9.75668 12.3989 9.51483 12.3507 9.28916 12.2569C9.0635 12.1631 8.85844 12.0256 8.6857 11.8523C8.51296 11.6789 8.37592 11.4731 8.2824 11.2466C8.18888 11.02 8.14071 10.7772 8.14065 10.532C8.14059 10.2868 8.18864 10.0439 8.28204 9.81735C8.37545 9.59077 8.51239 9.38488 8.68505 9.21144C8.8577 9.03799 9.06269 8.90039 9.2883 8.80649C9.51392 8.71259 9.75575 8.66423 9.99998 8.66417C10.4932 8.66417 10.9663 8.86091 11.3151 9.21111C11.6638 9.5613 11.8598 10.0363 11.8598 10.5315C11.8598 11.0268 11.6638 11.5017 11.3151 11.8519C10.9663 12.2021 10.4942 12.3989 10.0009 12.3989Z" fill="url(#paint0_linear_74_2692)"/>
<defs>
<linearGradient id="paint0_linear_74_2692" x1="10" y1="0" x2="10" y2="18" gradientUnits="userSpaceOnUse">
<stop stop-color="#2A209E"/>
<stop offset="1" stop-color="#470060" stop-opacity="0.88"/>
</linearGradient>
</defs>
</svg>
