<svg width="30" height="31" viewBox="0 0 30 31" fill="none" xmlns="http://www.w3.org/2000/svg">
<path d="M29.4999 21.2903L22.7342 14.5339C22.8758 13.8438 22.946 13.141 22.9437 12.4366C22.9432 10.505 22.4562 8.6047 21.5276 6.91138C20.5991 5.21806 19.259 3.78633 17.6313 2.74855C16.0035 1.71076 14.1406 1.1004 12.2148 0.973893C10.289 0.847384 8.36239 1.20881 6.61308 2.02475C6.39145 2.12608 6.19789 2.28003 6.0492 2.47322C5.90052 2.66641 5.8012 2.89301 5.75988 3.13335C5.71872 3.37062 5.73532 3.61434 5.80828 3.84383C5.88124 4.07332 6.0084 4.28183 6.179 4.45167L12.6903 10.9534L9.99596 13.65L3.49963 7.13327C3.3285 6.96519 3.11952 6.84072 2.89029 6.77033C2.66106 6.69994 2.41829 6.68569 2.18241 6.72879C1.94378 6.76863 1.71836 6.86576 1.52545 7.01187C1.33254 7.15798 1.17789 7.34871 1.07474 7.56772C0.256747 9.32425 -0.104059 11.2593 0.0258833 13.1929C0.155825 15.1265 0.772294 16.9957 1.81794 18.6268C2.86359 20.2579 4.30445 21.5978 6.00647 22.5219C7.7085 23.4459 9.6164 23.9241 11.5527 23.912C12.2566 23.9143 12.9588 23.844 13.6483 23.7023L20.3991 30.4737C20.5382 30.6141 20.7038 30.7255 20.8862 30.8016C21.0686 30.8777 21.2642 30.9168 21.4618 30.9168C21.6594 30.9168 21.8551 30.8777 22.0375 30.8016C22.2199 30.7255 22.3854 30.6141 22.5246 30.4737C22.6649 30.3344 22.7763 30.1687 22.8522 29.9862C22.9282 29.8036 22.9674 29.6078 22.9674 29.41C22.9674 29.2123 22.9282 29.0165 22.8522 28.8339C22.7763 28.6513 22.6649 28.4857 22.5246 28.3464L15.19 21.0057C15.0067 20.8235 14.7795 20.6918 14.5303 20.6236C14.2811 20.5553 14.0185 20.5528 13.768 20.6162C13.0453 20.8099 12.3009 20.9106 11.5527 20.9158C10.4331 20.9257 9.32266 20.7138 8.28527 20.2923C7.24789 19.8707 6.30409 19.248 5.50824 18.4598C4.71239 17.6717 4.08022 16.7337 3.64815 15.6999C3.21608 14.6662 2.99264 13.5571 2.99071 12.4366C2.98877 11.9347 3.02882 11.4336 3.11045 10.9384L8.97811 16.826C9.11726 16.9664 9.28281 17.0779 9.46521 17.1539C9.64762 17.23 9.84327 17.2691 10.0409 17.2691C10.2385 17.2691 10.4341 17.23 10.6165 17.1539C10.7989 17.0779 10.9645 16.9664 11.1036 16.826L15.8636 12.0171C16.1334 11.7377 16.2842 11.3644 16.2842 10.9759C16.2842 10.5874 16.1334 10.2141 15.8636 9.93472L10.0409 4.06217C10.5357 3.98129 11.0363 3.9412 11.5377 3.94232C13.7861 3.94629 15.9409 4.84297 17.5294 6.43551C19.1178 8.02806 20.0099 10.1863 20.0099 12.4366C20.0047 13.1853 19.9041 13.9304 19.7105 14.6537C19.6472 14.9044 19.6497 15.1672 19.7179 15.4166C19.7861 15.666 19.9176 15.8935 20.0997 16.0769L27.4343 23.4176C27.7161 23.6997 28.0984 23.8582 28.497 23.8582C28.8956 23.8582 29.2779 23.6997 29.5598 23.4176C29.8417 23.1355 30 22.7529 30 22.354C30 21.955 29.8417 21.5724 29.5598 21.2903H29.4999Z" fill="url(#paint0_linear_176_9480)"/>
<defs>
<linearGradient id="paint0_linear_176_9480" x1="15" y1="0.949219" x2="15" y2="30.9168" gradientUnits="userSpaceOnUse">
<stop stop-color="#2A209E"/>
<stop offset="1" stop-color="#470060"/>
</linearGradient>
</defs>
</svg>
